<svg width="22" height="22" viewBox="0 0 22 22" fill="none" xmlns="http://www.w3.org/2000/svg">
<rect width="22" height="22" fill="white"/>
<path d="M6.14645 19.8131C5.95118 20.0084 5.95118 20.325 6.14645 20.5202C6.34171 20.7155 6.65829 20.7155 6.85355 20.5202L15.1869 12.1869C15.3821 11.9916 15.3821 11.675 15.1869 11.4798L6.85355 3.14645C6.65829 2.95118 6.34171 2.95118 6.14645 3.14645C5.95118 3.34171 5.95118 3.65829 6.14645 3.85355L14.1262 11.8333L6.14645 19.8131Z" fill="#062037"/>
<mask id="mask0" mask-type="alpha" maskUnits="userSpaceOnUse" x="6" y="3" width="10" height="18">
<path d="M6.14645 19.8131C5.95118 20.0084 5.95118 20.325 6.14645 20.5202C6.34171 20.7155 6.65829 20.7155 6.85355 20.5202L15.1869 12.1869C15.3821 11.9916 15.3821 11.675 15.1869 11.4798L6.85355 3.14645C6.65829 2.95118 6.34171 2.95118 6.14645 3.14645C5.95118 3.34171 5.95118 3.65829 6.14645 3.85355L14.1262 11.8333L6.14645 19.8131Z" fill="white"/>
</mask>
<g mask="url(#mask0)">
<rect width="22" height="22" fill="#333333"/>
</g>
</svg>
