<svg id="SvgjsSvg1001" width="288" height="288" xmlns="http://www.w3.org/2000/svg" version="1.1" xmlns:xlink="http://www.w3.org/1999/xlink" xmlns:svgjs="http://svgjs.com/svgjs"><defs id="SvgjsDefs1002"></defs><g id="SvgjsG1008" transform="matrix(0.9167,0,0,0.9167,12.283357230758668,12.308274716949455)"><svg xmlns="http://www.w3.org/2000/svg" width="288" height="288" fill="none" viewBox="0 0 22 22"><path fill="#000000" fill-rule="evenodd" d="M7.24415 3.5V4.88278H4.5C4.22386 4.88278 4 5.10664 4 5.38278V19.0742C4 19.3503 4.22386 19.5742 4.5 19.5742H18.0285C18.3047 19.5742 18.5285 19.3503 18.5285 19.0742V5.38278C18.5285 5.10664 18.3047 4.88278 18.0285 4.88278H15.2441V3.5C15.2441 3.22386 15.0203 3 14.7441 3C14.468 3 14.2441 3.22386 14.2441 3.5V4.88278H8.24415V3.5C8.24415 3.22386 8.02029 3 7.74415 3C7.46801 3 7.24415 3.22386 7.24415 3.5ZM14.2441 5.88278H8.24415V7.15103C8.24415 7.42717 8.02029 7.65103 7.74415 7.65103C7.46801 7.65103 7.24415 7.42717 7.24415 7.15103V5.88278H5V8.62321H17.5285V5.88278H15.2441V7.15103C15.2441 7.42717 15.0203 7.65103 14.7441 7.65103C14.468 7.65103 14.2441 7.42717 14.2441 7.15103V5.88278ZM5 9.62321V18.5742H17.5285V9.62321H5Z" clip-rule="evenodd" class="color333 svgShape"></path></svg></g></svg>