<?xml version="1.0" encoding="UTF-8"?>
<svg xmlns="http://www.w3.org/2000/svg" xmlns:xlink="http://www.w3.org/1999/xlink" viewBox="0 0 64 64" width="64px" height="64px">
<g id="surface9813096">
<path style=" stroke:none;fill-rule:nonzero;fill:rgb(44.313726%,76.078433%,3.529412%);fill-opacity:1;" d="M 63.011719 32 C 63.011719 14.875 49.125 0.988281 32 0.988281 C 14.875 0.988281 0.988281 14.875 0.988281 32 C 0.988281 49.125 14.875 63.011719 32 63.011719 C 49.125 63.011719 63.011719 49.125 63.011719 32 Z M 63.011719 32 "/>
<path style=" stroke:none;fill-rule:nonzero;fill:rgb(100%,100%,100%);fill-opacity:1;" d="M 49.074219 21.613281 C 48.351562 19.726562 46.863281 20.023438 45.25 20.351562 C 44.289062 20.550781 40 21.800781 33.238281 28.949219 C 30.425781 31.914062 28.574219 34.273438 27.351562 36.074219 C 26.601562 35.164062 25.75 34.175781 24.851562 33.289062 C 22.085938 30.523438 19 28.625 18.875 28.550781 C 17.585938 27.761719 15.898438 28.164062 15.101562 29.460938 C 14.3125 30.75 14.710938 32.4375 16 33.238281 C 16.023438 33.25 18.675781 34.886719 20.949219 37.175781 C 23.273438 39.5 25.386719 42.648438 25.414062 42.6875 C 25.925781 43.460938 26.789062 43.914062 27.699219 43.914062 C 27.851562 43.914062 28.011719 43.898438 28.175781 43.875 C 29.25 43.6875 30.101562 42.886719 30.363281 41.835938 C 30.375 41.8125 31.460938 38.800781 37.199219 32.75 C 41.824219 27.863281 44.914062 26.3125 45.988281 25.886719 C 46 25.886719 46 25.886719 46.023438 25.886719 C 46.023438 25.886719 46.0625 25.875 46.125 25.835938 C 46.3125 25.761719 46.414062 25.738281 46.414062 25.738281 C 46.363281 25.75 46.335938 25.75 46.335938 25.75 L 46.335938 25.738281 C 46.835938 25.523438 47.761719 25.125 47.773438 25.113281 C 49.164062 24.511719 49.625 23.011719 49.074219 21.613281 Z M 49.074219 21.613281 "/>
</g>
</svg>
