<svg width="22" height="22" viewBox="0 0 22 22" fill="none" xmlns="http://www.w3.org/2000/svg">
<g clip-path="url(#clip0)">
<path d="M19.5484 13.5867C19.4359 13.5867 19.3796 13.5305 19.2671 13.4742L10.9984 6.61172L2.67337 13.4742C2.50462 13.643 2.22337 13.5867 2.05462 13.418C1.94212 13.2492 1.99837 12.968 2.16712 12.7992L10.7171 5.76797C10.8859 5.65547 11.1109 5.65547 11.2796 5.76797L19.8859 12.8555C20.0546 13.0242 20.1109 13.2492 19.9421 13.4742C19.8296 13.5305 19.7171 13.5867 19.5484 13.5867Z" fill="#333333"/>
<path d="M10.9969 6.5C10.7719 6.5 10.5469 6.33125 10.5469 6.05V2.45C10.6031 2.16875 10.7719 2 10.9969 2C11.2219 2 11.4469 2.16875 11.4469 2.45V6.10625C11.4469 6.33125 11.2219 6.5 10.9969 6.5Z" fill="#333333"/>
<path d="M12.2914 3.96875H9.70391C9.47891 3.96875 9.25391 3.8 9.25391 3.51875C9.25391 3.2375 9.47891 3.125 9.70391 3.125H12.2914C12.5164 3.125 12.6852 3.29375 12.6852 3.575C12.6852 3.85625 12.5164 3.96875 12.2914 3.96875Z" fill="#333333"/>
<path d="M17.3562 20.0008H13.25C13.025 20.0008 12.8 19.832 12.8 19.5508V15.9508C12.8 14.9383 12.0125 14.1508 11 14.1508C9.9875 14.1508 9.2 14.9383 9.2 15.9508V19.5508C9.2 19.7758 9.03125 20.0008 8.75 20.0008H4.7C4.41875 20.0008 4.25 19.832 4.25 19.607V11.282C4.25 11.1695 4.30625 11.057 4.41875 10.9445L10.775 5.71328C10.9438 5.60078 11.1688 5.60078 11.3375 5.71328L17.6937 10.9445C17.8062 11.0008 17.8625 11.1695 17.8625 11.282V19.5508C17.75 19.832 17.5812 20.0008 17.3562 20.0008ZM13.6438 19.157H16.9062V11.507L11 6.61328L5.09375 11.507V19.157H8.35625V16.007C8.35625 14.5445 9.5375 13.3633 11 13.3633C12.4625 13.3633 13.6438 14.5445 13.6438 16.007V19.157Z" fill="#333333"/>
</g>
<defs>
<clipPath id="clip0">
<rect x="2" y="2" width="18" height="18" fill="white"/>
</clipPath>
</defs>
</svg>
