<svg width="16" height="16" viewBox="0 0 16 16" fill="none" xmlns="http://www.w3.org/2000/svg">
<path d="M7.99812 0.0800781C3.63044 0.0800781 0.078125 3.63239 0.078125 8.00008C0.078125 12.3677 3.63044 15.9201 7.99812 15.9201C12.3658 15.9201 15.9181 12.3677 15.9181 8.00008C15.9181 3.63239 12.3658 0.0800781 7.99812 0.0800781ZM7.99812 1.16008C11.7821 1.16008 14.8381 4.21606 14.8381 8.00008C14.8381 11.7841 11.7821 14.8401 7.99812 14.8401C4.21413 14.8401 1.15812 11.7841 1.15812 8.00008C1.15812 4.21606 4.21413 1.16008 7.99812 1.16008ZM7.99812 2.24008C7.6999 2.24008 7.45812 2.48185 7.45812 2.78008V8.00008C7.45812 8.19979 7.56695 8.37354 7.72812 8.46696L11.9356 10.8969C12.1939 11.0461 12.5234 10.9584 12.6725 10.7001C12.8216 10.4418 12.7339 10.1123 12.4756 9.96319L8.53812 7.69071V2.78008C8.53812 2.48185 8.29637 2.24008 7.99812 2.24008Z" fill="#333333"/>
</svg>
