<svg width="22" height="22" viewBox="0 0 22 22" fill="none" xmlns="http://www.w3.org/2000/svg">
<path fill-rule="evenodd" clip-rule="evenodd" d="M4.34375 3C4.34375 2.72386 4.55982 2.5 4.82635 2.5H11.5158C11.6438 2.5 11.7666 2.55268 11.8571 2.64645L16.1513 7.09546C16.2418 7.18923 16.2927 7.31641 16.2927 7.44901V19.3239C16.2927 19.6001 16.0766 19.8239 15.8101 19.8239H4.82635C4.55982 19.8239 4.34375 19.6001 4.34375 19.3239V3ZM5.30896 3.5V18.8239H15.3275V8.57833H10.7969C10.5304 8.57833 10.3143 8.35447 10.3143 8.07833V3.5H5.30896ZM11.2795 3.5V7.57833H15.2524L11.3159 3.5H11.2795ZM12.9585 12.0899H7.46427C7.19774 12.0899 6.98167 11.8661 6.98167 11.5899C6.98167 11.3138 7.19774 11.0899 7.46427 11.0899H12.9585C13.225 11.0899 13.4411 11.3138 13.4411 11.5899C13.4411 11.8661 13.225 12.0899 12.9585 12.0899ZM7.46427 15.0899H12.9585C13.225 15.0899 13.4411 14.8661 13.4411 14.5899C13.4411 14.3138 13.225 14.0899 12.9585 14.0899H7.46427C7.19774 14.0899 6.98167 14.3138 6.98167 14.5899C6.98167 14.8661 7.19774 15.0899 7.46427 15.0899Z" fill="#333333"/>
</svg>
