<svg width="13" height="16" viewBox="0 0 13 16" fill="none" xmlns="http://www.w3.org/2000/svg">
<path d="M10.9867 5.29609L11.4451 1.53776H12.4076C12.6826 1.53776 12.8659 1.35443 12.8659 1.07943C12.8659 0.804427 12.6826 0.621094 12.4076 0.621094H11.0326H2.78255H1.40755C1.13255 0.621094 0.949219 0.804427 0.949219 1.07943C0.949219 1.35443 1.13255 1.53776 1.40755 1.53776H2.41589L2.87422 5.29609C3.01172 6.35026 3.56172 7.31276 4.34089 7.95443C3.51589 8.59609 2.96589 9.55859 2.87422 10.6128L2.41589 14.3711H1.45339C1.17839 14.3711 0.995052 14.5544 0.995052 14.8294C0.995052 15.1044 1.17839 15.2878 1.45339 15.2878H2.82839H11.0784H12.4534C12.7284 15.2878 12.9117 15.1044 12.9117 14.8294C12.9117 14.5544 12.7284 14.3711 12.4534 14.3711H11.4909L11.0326 10.6128C10.8951 9.55859 10.3451 8.59609 9.56589 7.95443C10.3451 7.26693 10.8951 6.35026 10.9867 5.29609ZM8.46589 8.36693C9.33672 8.87109 9.93256 9.74193 10.0701 10.7503L10.5284 14.3711H3.33255L3.79089 10.7503C3.92839 9.74193 4.52422 8.87109 5.39505 8.36693C5.53255 8.27526 5.62422 8.13776 5.62422 7.95443C5.62422 7.77109 5.53255 7.63359 5.39505 7.54193C4.52422 7.03776 3.92839 6.16693 3.79089 5.15859L3.33255 1.53776H10.5284L10.0701 5.15859C9.93256 6.16693 9.33672 7.03776 8.46589 7.54193C8.32839 7.63359 8.23672 7.77109 8.23672 7.95443C8.23672 8.13776 8.32839 8.27526 8.46589 8.36693Z" fill="#333333"/>
</svg>
