<svg width="22" height="22" viewBox="0 0 22 22" fill="none" xmlns="http://www.w3.org/2000/svg">
<path fill-rule="evenodd" clip-rule="evenodd" d="M11.2333 6.53366C12.1722 6.53366 12.9333 7.29478 12.9333 8.23366C12.9333 9.17255 12.1722 9.93366 11.2333 9.93366C10.2944 9.93366 9.53333 9.17255 9.53333 8.23366C9.53333 7.29478 10.2944 6.53366 11.2333 6.53366ZM11.2333 5.40033C9.66853 5.40033 8.4 6.66886 8.4 8.23366C8.4 9.79847 9.66853 11.067 11.2333 11.067C12.7981 11.067 14.0667 9.79847 14.0667 8.23366C14.0667 6.66888 12.7981 5.40033 11.2333 5.40033ZM11.2333 3.13378C14.0038 3.09275 16.2849 5.30141 16.3333 8.07171C16.3336 9.14096 15.9775 10.1798 15.3213 11.024L15.3023 11.0488L15.2847 11.0745L11.2333 16.9935L7.18167 11.0744L7.16404 11.0486L7.14506 11.0239C6.48904 10.1797 6.13305 9.14093 6.13333 8.07177C6.18176 5.30146 8.46291 3.0928 11.2333 3.13383V3.13378ZM11.2333 2.0005C7.83625 1.95759 5.04657 4.67473 5 8.07177C5.00136 9.39046 5.43977 10.6715 6.24667 11.7145L11.2333 19L16.22 11.7145C17.0269 10.6715 17.4653 9.39046 17.4667 8.07177C17.4201 4.67473 14.6304 1.95759 11.2333 2.0005Z" fill="#333333"/>
</svg>
