<svg width="19" height="19" viewBox="0 0 19 19" fill="none" xmlns="http://www.w3.org/2000/svg">
<path d="M18.1582 8.32537L16.7416 2.97073L18.8524 0.859855C18.9468 0.765336 18.9998 0.637218 18.9997 0.503656C18.9997 0.370095 18.9466 0.242019 18.8521 0.147577C18.7577 0.0531349 18.6296 5.40899e-05 18.4961 4.13154e-08C18.3625 -5.40073e-05 18.2344 0.0529235 18.1399 0.147289L16.029 2.25816L10.6744 0.841502C10.5891 0.818956 10.4994 0.819172 10.4143 0.842128C10.3292 0.865085 10.2515 0.909977 10.1892 0.972323L0.147568 11.0139C0.0530814 11.1084 0 11.2366 0 11.3702C0 11.5038 0.0530814 11.632 0.147568 11.7265L7.27323 18.8522C7.36773 18.9466 7.49588 18.9997 7.62951 18.9997C7.76314 18.9997 7.8913 18.9466 7.9858 18.8522L18.0274 8.81056C18.0897 8.7482 18.1346 8.67057 18.1576 8.58543C18.1805 8.50029 18.1808 8.41062 18.1582 8.32537ZM7.62951 17.7833L1.21642 11.3702L10.6968 1.88982L15.2047 3.08246L13.33 4.95711C13.3122 4.97579 13.2959 4.99582 13.2811 5.01702C12.934 4.83739 12.5342 4.7878 12.1537 4.87721C11.7733 4.96662 11.4374 5.18915 11.2067 5.50458C10.976 5.82001 10.8657 6.20755 10.8957 6.5972C10.9257 6.98684 11.0941 7.3529 11.3705 7.62924C11.6468 7.90558 12.0129 8.07398 12.4025 8.10402C12.7922 8.13406 13.1797 8.02376 13.4951 7.79305C13.8106 7.56233 14.0331 7.22642 14.1225 6.84598C14.2119 6.46555 14.1623 6.06568 13.9827 5.71861C14.0039 5.70387 14.0239 5.68751 14.0426 5.66968L15.9173 3.79503L17.1099 8.30292L7.62951 17.7833Z" fill="#333333"/>
</svg>
