<svg id="SvgjsSvg1001" width="288" height="288" xmlns="http://www.w3.org/2000/svg" version="1.1" xmlns:xlink="http://www.w3.org/1999/xlink" xmlns:svgjs="http://svgjs.com/svgjs"><defs id="SvgjsDefs1002"></defs><g id="SvgjsG1008" transform="matrix(0.9167,0,0,0.9167,12.220873333358782,13.085770829772969)"><svg xmlns="http://www.w3.org/2000/svg" width="288" height="288" fill="none" viewBox="0 0 22 22"><path fill="#000000" d="M11.2069 4.08008C6.99122 4.08008 3.5625 7.63239 3.5625 12.0001C3.5625 16.3677 6.99122 19.9201 11.2069 19.9201C15.4227 19.9201 18.8514 16.3677 18.8514 12.0001C18.8514 7.63239 15.4227 4.08008 11.2069 4.08008ZM11.2069 5.16008C14.8593 5.16008 17.809 8.21606 17.809 12.0001C17.809 15.7841 14.8593 18.8401 11.2069 18.8401C7.5546 18.8401 4.60492 15.7841 4.60492 12.0001C4.60492 8.21606 7.5546 5.16008 11.2069 5.16008ZM11.2069 6.24008C10.9191 6.24008 10.6857 6.48185 10.6857 6.78008V12.0001C10.6857 12.1998 10.7908 12.3735 10.9463 12.467L15.0074 14.8969C15.2567 15.0461 15.5748 14.9584 15.7187 14.7001C15.8626 14.4418 15.7779 14.1123 15.5287 13.9632L11.7282 11.6907V6.78008C11.7282 6.48185 11.4948 6.24008 11.2069 6.24008Z" class="color333 svgShape"></path></svg></g></svg>