<svg width="22" height="22" viewBox="0 0 22 22" fill="none" xmlns="http://www.w3.org/2000/svg">
<g opacity="0.4">
<path fill-rule="evenodd" clip-rule="evenodd" d="M11 19C15.4183 19 19 15.4183 19 11C19 6.58172 15.4183 3 11 3C6.58172 3 3 6.58172 3 11C3 15.4183 6.58172 19 11 19ZM6.04762 16.2787C4.64073 14.9582 3.7619 13.0817 3.7619 11C3.7619 7.00251 7.00251 3.7619 11 3.7619C14.9975 3.7619 18.2381 7.00251 18.2381 11C18.2381 13.0817 17.3593 14.9582 15.9524 16.2787V15.5714C15.9524 14.0987 14.7585 12.9048 13.2857 12.9048H8.71429C7.24153 12.9048 6.04762 14.0987 6.04762 15.5714V16.2787ZM6.77335 16.8765C7.96255 17.7333 9.42233 18.2381 11 18.2381C12.5777 18.2381 14.0374 17.7333 15.2266 16.8765C15.2035 16.8273 15.1905 16.7723 15.1905 16.7143V15.5714C15.1905 14.5195 14.3377 13.6667 13.2857 13.6667H8.71429C7.66231 13.6667 6.80952 14.5195 6.80952 15.5714V16.7143C6.80952 16.7723 6.79655 16.8273 6.77335 16.8765ZM13.6667 8.71429C13.6667 10.187 12.4728 11.381 11 11.381C9.52724 11.381 8.33333 10.187 8.33333 8.71429C8.33333 7.24153 9.52724 6.04762 11 6.04762C12.4728 6.04762 13.6667 7.24153 13.6667 8.71429ZM9.09524 8.7143C9.09524 9.76627 9.94803 10.6191 11 10.6191C12.052 10.6191 12.9048 9.76627 12.9048 8.7143C12.9048 7.66233 12.052 6.80954 11 6.80954C9.94803 6.80954 9.09524 7.66233 9.09524 8.7143Z" fill="#333333"/>
</g>
</svg>
