<svg width="24" height="24" viewBox="0 0 24 24" fill="none" xmlns="http://www.w3.org/2000/svg">
<path d="M15 19C15 20.6568 13.6569 22 12 22C10.3431 22 9 20.6568 9 19C9 17.3431 10.3431 19 12 19C13.6569 19 15 17.3431 15 19Z" fill="#6A5E5D"/>
<mask id="path-2-inside-1_536_9795" fill="white">
<path d="M14.9874 4.7C14.9874 4.72112 14.9871 4.74218 14.9866 4.76318C14.9746 5.23438 15.1248 5.72787 15.4888 6.02733C17.5704 7.73979 18.9706 10.9377 18.9706 14.6V14.6034C18.9728 15.6535 19.988 17.3136 20.8342 18.5155C21.2747 19.1412 20.787 20 19.9664 20H4.03359C3.21301 20 2.7253 19.1412 3.16584 18.5155C4.01294 17.3123 5.02939 15.65 5.02939 14.6C5.02939 10.9377 6.42961 7.73979 8.51119 6.02732C8.8752 5.72787 9.02537 5.23438 9.0134 4.76318C9.01287 4.74218 9.0126 4.72112 9.0126 4.7C9.0126 3.20883 10.3501 2 12 2C13.6499 2 14.9874 3.20883 14.9874 4.7Z"/>
</mask>
<path d="M18.9706 14.6034H16.9706L16.9706 14.6075L18.9706 14.6034ZM20.8342 18.5155L22.4695 17.364L22.4695 17.364L20.8342 18.5155ZM3.16584 18.5155L4.80116 19.6669L4.80116 19.6669L3.16584 18.5155ZM5.02939 14.6H3.02939H5.02939ZM9.0134 4.76318L7.01405 4.81397L9.0134 4.76318ZM14.9866 4.76318L12.9873 4.71238L14.9866 4.76318ZM16.986 4.81397C16.9869 4.77605 16.9874 4.73805 16.9874 4.7H12.9874C12.9874 4.70418 12.9874 4.70831 12.9873 4.71238L16.986 4.81397ZM20.9706 14.6C20.9706 10.4884 19.4066 6.66055 16.7594 4.48282L14.2182 7.57184C15.7342 8.81903 16.9706 11.3869 16.9706 14.6H20.9706ZM20.9706 14.6034V14.6H16.9706V14.6034H20.9706ZM16.9706 14.6075C16.9728 15.6444 17.4306 16.6881 17.809 17.4205C18.2276 18.2309 18.7501 19.0295 19.1988 19.6669L22.4695 17.364C22.072 16.7995 21.6638 16.1672 21.3628 15.5845C21.2127 15.2942 21.1054 15.0467 21.0387 14.8491C20.9673 14.6374 20.9705 14.5646 20.9706 14.5993L16.9706 14.6075ZM19.1988 19.6669C18.9268 19.2804 18.9603 18.8051 19.142 18.491C19.32 18.1831 19.643 18 19.9664 18V22C22.1397 22 23.9935 19.5287 22.4695 17.364L19.1988 19.6669ZM19.9664 18H4.03359V22H19.9664V18ZM4.03359 18C4.35697 18 4.67998 18.1831 4.85804 18.491C5.03975 18.8051 5.07324 19.2804 4.80116 19.6669L1.53053 17.364C0.00644684 19.5287 1.8603 22 4.03359 22V18ZM4.80116 19.6669C5.25035 19.0289 5.77347 18.2292 6.19238 17.4179C6.57071 16.6851 7.02939 15.6391 7.02939 14.6H3.02939C3.02939 14.5639 3.03316 14.6357 2.96191 14.8473C2.89545 15.0447 2.78824 15.2921 2.63818 15.5827C2.33709 16.1659 1.92844 16.7989 1.53053 17.364L4.80116 19.6669ZM7.24057 4.48281C4.59342 6.66055 3.02939 10.4884 3.02939 14.6H7.02939C7.02939 11.3869 8.2658 8.81903 9.78182 7.57183L7.24057 4.48281ZM7.0126 4.7C7.0126 4.73805 7.01308 4.77604 7.01405 4.81397L11.0128 4.71238C11.0127 4.70831 11.0126 4.70418 11.0126 4.7H7.0126ZM12 0C9.44067 0 7.0126 1.91874 7.0126 4.7H11.0126C11.0126 4.57632 11.0638 4.42354 11.2286 4.2746C11.3967 4.12269 11.6639 4 12 4V0ZM16.9874 4.7C16.9874 1.91874 14.5593 0 12 0V4C12.3361 4 12.6033 4.12269 12.7714 4.2746C12.9362 4.42354 12.9874 4.57632 12.9874 4.7H16.9874ZM9.78182 7.57183C10.7762 6.75382 11.0345 5.56636 11.0128 4.71238L7.01405 4.81397C7.01441 4.8284 7.01029 4.81217 7.02828 4.76371C7.04782 4.71107 7.10492 4.59441 7.24057 4.48281L9.78182 7.57183ZM12.9873 4.71238C12.9656 5.56637 13.2239 6.75382 14.2182 7.57184L16.7594 4.48282C16.8951 4.59441 16.9522 4.71108 16.9717 4.76371C16.9897 4.81217 16.9856 4.8284 16.986 4.81397L12.9873 4.71238Z" fill="#1A0706" mask="url(#path-2-inside-1_536_9795)"/>
</svg>
