<svg width="24" height="24" viewBox="0 0 24 24" fill="none" xmlns="http://www.w3.org/2000/svg">
<path d="M6 20H12.4734C16.1064 20 18 18.4559 18 15.5245V15.435C18 13.2867 16.8991 12.1007 14.8514 11.6755C16.6128 11.1608 17.4055 9.93007 17.4055 8.25175V8.16224C17.4055 5.43217 15.622 4 12.1872 4H6V20ZM9 17.8667V12.9063H11.7468C13.6844 12.9063 14.8514 13.6336 14.8514 15.1105V15.2C14.8514 16.6545 13.6844 17.8667 11.9229 17.8667H9ZM9 10.4V6.13333H11.5927C13.2661 6.13333 14.0147 7.08811 14.0147 8.43077V8.52028C14.0147 9.95245 13.3321 10.4 11.6147 10.4H9Z" fill="#6A5E5D"/>
</svg>
