<svg width="24" height="24" viewBox="0 0 24 24" fill="none" xmlns="http://www.w3.org/2000/svg">
<rect x="4" y="3" width="16" height="16" rx="3" stroke="#6A5E5D" stroke-width="2"/>
<rect x="8.5" y="0.5" width="1" height="3" rx="0.5" stroke="#6A5E5D"/>
<rect x="14.5" y="0.5" width="1" height="3" rx="0.5" stroke="#6A5E5D"/>
<mask id="path-4-inside-1_87_1196" fill="white">
<rect x="20" y="6" width="2" height="16" rx="1" transform="rotate(90 20 6)"/>
</mask>
<rect x="20" y="6" width="2" height="16" rx="1" transform="rotate(90 20 6)" stroke="#6A5E5D" stroke-width="2" mask="url(#path-4-inside-1_87_1196)"/>
<rect x="7" y="10" width="2" height="2" rx="1" fill="#6A5E5D"/>
<rect x="11" y="10" width="2" height="2" rx="1" fill="#6A5E5D"/>
<rect x="15" y="10" width="2" height="2" rx="1" fill="#6A5E5D"/>
<rect x="15" y="14" width="2" height="2" rx="1" fill="#6A5E5D"/>
<rect x="7" y="14" width="2" height="2" rx="1" fill="#6A5E5D"/>
<rect x="11" y="14" width="2" height="2" rx="1" fill="#6A5E5D"/>
</svg>
