<svg width="24" height="24" viewBox="0 0 24 24" fill="none" xmlns="http://www.w3.org/2000/svg">
<g clip-path="url(#clip0_297_5964)">
<mask id="path-1-inside-1_297_5964" fill="white">
<path fill-rule="evenodd" clip-rule="evenodd" d="M9 3C9 1.34315 10.3431 0 12 0C13.6569 0 15 1.34315 15 3V3C15 3.64851 15.7841 3.97328 16.2426 3.51472V3.51472C17.4142 2.34315 19.3137 2.34315 20.4853 3.51472C21.6569 4.68629 21.6569 6.58579 20.4853 7.75736V7.75736C20.0267 8.21592 20.3515 9 21 9V9C22.6569 9 24 10.3431 24 12C24 13.6569 22.6569 15 21 15V15C20.3515 15 20.0267 15.7841 20.4853 16.2426V16.2426C21.6569 17.4142 21.6569 19.3137 20.4853 20.4853C19.3137 21.6569 17.4142 21.6569 16.2426 20.4853V20.4853C15.7841 20.0267 15 20.3515 15 21V21C15 22.6569 13.6569 24 12 24C10.3431 24 9 22.6569 9 21V21C9 20.3515 8.21593 20.0267 7.75736 20.4853V20.4853C6.58579 21.6569 4.68629 21.6569 3.51472 20.4853C2.34315 19.3137 2.34315 17.4142 3.51472 16.2426V16.2426C3.97329 15.7841 3.64851 15 3 15V15C1.34315 15 0 13.6569 0 12C0 10.3431 1.34315 9 3 9V9C3.64851 9 3.97328 8.21592 3.51472 7.75736V7.75736C2.34315 6.58579 2.34315 4.68629 3.51472 3.51472C4.68629 2.34315 6.58579 2.34315 7.75736 3.51472V3.51472C8.21592 3.97328 9 3.64851 9 3V3Z"/>
</mask>
<path d="M20.4853 3.51472L21.8995 2.10051L21.8995 2.1005L20.4853 3.51472ZM20.4853 20.4853L19.0711 19.0711V19.0711L20.4853 20.4853ZM3.51472 20.4853L4.92893 19.0711L4.92893 19.0711L3.51472 20.4853ZM3.51472 3.51472L4.92893 4.92893L4.92893 4.92893L3.51472 3.51472ZM12 -2C9.23858 -2 7 0.238577 7 3H11C11 2.44772 11.4477 2 12 2V-2ZM17 3C17 0.238577 14.7614 -2 12 -2V2C12.5523 2 13 2.44772 13 3H17ZM21.8995 2.1005C19.9469 0.147884 16.781 0.147884 14.8284 2.1005L17.6569 4.92893C18.0474 4.53841 18.6805 4.53841 19.0711 4.92893L21.8995 2.1005ZM21.8995 9.17157C23.8521 7.21895 23.8521 4.05313 21.8995 2.10051L19.0711 4.92893C19.4616 5.31946 19.4616 5.95262 19.0711 6.34315L21.8995 9.17157ZM21 11C21.5523 11 22 11.4477 22 12H26C26 9.23858 23.7614 7 21 7V11ZM22 12C22 12.5523 21.5523 13 21 13V17C23.7614 17 26 14.7614 26 12H22ZM21.8995 21.8995C23.8521 19.9469 23.8521 16.781 21.8995 14.8284L19.0711 17.6569C19.4616 18.0474 19.4616 18.6805 19.0711 19.0711L21.8995 21.8995ZM14.8284 21.8995C16.781 23.8521 19.9469 23.8521 21.8995 21.8995L19.0711 19.0711C18.6805 19.4616 18.0474 19.4616 17.6569 19.0711L14.8284 21.8995ZM12 26C14.7614 26 17 23.7614 17 21H13C13 21.5523 12.5523 22 12 22V26ZM7 21C7 23.7614 9.23858 26 12 26V22C11.4477 22 11 21.5523 11 21H7ZM2.10051 21.8995C4.05313 23.8521 7.21895 23.8521 9.17157 21.8995L6.34315 19.0711C5.95262 19.4616 5.31946 19.4616 4.92893 19.0711L2.10051 21.8995ZM2.10051 14.8284C0.147885 16.781 0.147885 19.9469 2.10051 21.8995L4.92893 19.0711C4.53841 18.6805 4.53841 18.0474 4.92893 17.6569L2.10051 14.8284ZM3 13C2.44772 13 2 12.5523 2 12H-2C-2 14.7614 0.238575 17 3 17V13ZM2 12C2 11.4477 2.44772 11 3 11V7C0.238577 7 -2 9.23858 -2 12H2ZM2.10051 2.10051C0.147883 4.05313 0.147883 7.21895 2.10051 9.17157L4.92893 6.34315C4.53841 5.95262 4.53841 5.31946 4.92893 4.92893L2.10051 2.10051ZM9.17157 2.10051C7.21895 0.147884 4.05313 0.147884 2.1005 2.10051L4.92893 4.92893C5.31946 4.53841 5.95262 4.53841 6.34315 4.92893L9.17157 2.10051ZM6.34315 4.92893C8.06164 6.64743 11 5.43032 11 3H7C7 1.8667 8.37021 1.29914 9.17157 2.10051L6.34315 4.92893ZM3 11C5.43032 11 6.64743 8.06164 4.92893 6.34315L2.1005 9.17157C1.29914 8.37021 1.8667 7 3 7V11ZM4.92893 17.6569C6.64743 15.9384 5.43031 13 3 13V17C1.86671 17 1.29914 15.6298 2.10051 14.8284L4.92893 17.6569ZM11 21C11 18.5697 8.06165 17.3526 6.34315 19.0711L9.17157 21.8995C8.37021 22.7009 7 22.1333 7 21H11ZM17.6569 19.0711C15.9384 17.3526 13 18.5697 13 21H17C17 22.1333 15.6298 22.7009 14.8284 21.8995L17.6569 19.0711ZM21 13C18.5697 13 17.3526 15.9384 19.0711 17.6569L21.8995 14.8284C22.7009 15.6298 22.1333 17 21 17V13ZM19.0711 6.34315C17.3526 8.06163 18.5697 11 21 11V7C22.1333 7 22.7009 8.37021 21.8995 9.17157L19.0711 6.34315ZM13 3C13 5.43032 15.9384 6.64743 17.6569 4.92893L14.8284 2.10051C15.6298 1.29914 17 1.8667 17 3H13Z" fill="#6A5E5D" mask="url(#path-1-inside-1_297_5964)"/>
<circle cx="12" cy="12" r="4" stroke="#6A5E5D" stroke-width="2"/>
</g>
<defs>
<clipPath id="clip0_297_5964">
<rect width="24" height="24" fill="white"/>
</clipPath>
</defs>
</svg>
