<svg width="24" height="24" viewBox="0 0 24 24" fill="none" xmlns="http://www.w3.org/2000/svg">
<path d="M4 19C4 18.4477 4.44772 18 5 18H19C19.5523 18 20 18.4477 20 19C20 19.5523 19.5523 20 19 20H5C4.44772 20 4 19.5523 4 19Z" fill="#6A5E5D"/>
<path d="M11.9999 15.4142C11.4476 15.4142 10.9999 14.9665 10.9999 14.4142L10.9999 5.41421C10.9999 4.86193 11.4476 4.41421 11.9999 4.41421C12.5522 4.41421 12.9999 4.86193 12.9999 5.41421L12.9999 14.4142C12.9999 14.9665 12.5522 15.4142 11.9999 15.4142Z" fill="#6A5E5D"/>
<path fill-rule="evenodd" clip-rule="evenodd" d="M12.707 15.7071C12.3164 16.0976 11.6833 16.0976 11.2928 15.7071L7.75723 12.1716C7.3667 11.781 7.3667 11.1479 7.75723 10.7574C8.14775 10.3668 8.78092 10.3668 9.17144 10.7574L11.2928 12.8787C11.6833 13.2692 12.3164 13.2692 12.707 12.8787L14.8283 10.7574C15.2188 10.3668 15.852 10.3668 16.2425 10.7574C16.633 11.1479 16.633 11.781 16.2425 12.1716L12.707 15.7071Z" fill="#6A5E5D"/>
</svg>
