<svg width="24" height="24" xmlns="http://www.w3.org/2000/svg" fill="none">
 <g>
  <title>Layer 1</title>
  <path fill-rule="evenodd" clip-rule="evenodd" d="m13.4615,2.5364c-0.7931,-0.83358 -2.1243,-0.8277 -2.91,0.01285l-8.60942,9.21025c-0.42486,0.4545 -0.56039,1.1081 -0.35125,1.6941c0.36237,1.0153 1.54545,1.3876 2.40898,0.8759l0,6.6698l0,0.0007c0,0.5523 0.44772,1 1,1l13.99999,0l0.0065,0c0.5493,-0.0035 0.9935,-0.4499 0.9935,-1l0,-0.002l0,-6.7538c0.8743,0.7456 2.2566,0.3997 2.6541,-0.7142c0.2121,-0.5941 0.0716,-1.2569 -0.3632,-1.7139l-8.8292,-9.2797zm4.5383,9.6551l-4.5494,-4.69461c-0.7913,-0.81651 -2.1031,-0.81 -2.8863,0.01431l-4.56429,4.8045l0,7.6843l11.99999,0l0,-7.8085z" fill="#1A0706" id="svg_1"/>
  <path stroke="null" d="m4.90168,11.6376l7.1818,-6.97052l7.1818,6.97052l0,9.65149l-14.3636,0l0,-9.65149z" fill="#1A0706" id="svg_2"/>
 </g>

</svg>