<svg width="24" height="24" viewBox="0 0 24 24" fill="none" xmlns="http://www.w3.org/2000/svg">
<rect x="4" y="20" width="16" height="2" rx="1" fill="#6A5E5D"/>
<rect x="20" y="10" width="12" height="2" rx="1" transform="rotate(90 20 10)" fill="#6A5E5D"/>
<rect x="6" y="10" width="12" height="2" rx="1" transform="rotate(90 6 10)" fill="#6A5E5D"/>
<path fill-rule="evenodd" clip-rule="evenodd" d="M11.2758 2.71338C11.6686 2.2931 12.3342 2.29016 12.7308 2.70695L22.4006 12.8701C22.7439 13.231 22.7679 13.79 22.4568 14.1789V14.1789C22.082 14.6474 21.3812 14.6807 20.9637 14.2498L12.7253 5.74844C12.3297 5.34019 11.6737 5.34344 11.2822 5.7556L3.28496 14.1736C2.86979 14.6106 2.16437 14.5806 1.78781 14.1099V14.1099C1.47931 13.7243 1.50062 13.1707 1.83786 12.8099L11.2758 2.71338Z" fill="#6A5E5D"/>
</svg>
