<svg width="410" height="113" viewBox="0 0 410 113" fill="none" xmlns="http://www.w3.org/2000/svg">
<g clip-path="url(#clip0_1_182)">
<path d="M141.9 34.6V4.30005H131.7V34.5C131.7 39.6 129.2 41.6 125.4 41.6C122.8 41.6 121.3 41.1 119.8 40.5V48.3C121.4 49.1 123.4 49.7001 127.2 49.7001C136.3 49.6001 141.9 44.7 141.9 34.6ZM178.9 38.7001H170.3C169.7 41.5001 167.7 43.3 163.5 43.3C158.6 43.3 155.6 40.2001 155.4 34.7001H179V32.2001C179 20.5001 171.5 15.6 163 15.6C153.5 15.6 146.2 22.3 146.2 32.6V33.1C146.2 43.6 153.4 49.7001 163.3 49.7001C172.2 49.8001 177.8 45.8001 178.9 38.7001ZM163 21.8C167.3 21.8 169.8 24.2 170.1 29.1H155.5C156.2 24.5 158.9 21.8 163 21.8ZM196.7 43.4001C192.8 43.4001 191.3 41.7 190.9 38.8H182.5C182.8 45.9 187.9 49.8 196.8 49.8C205.4 49.8 210.6 46.1 210.6 39C210.6 32 206.1 29.9001 197.9 28.7001C193.1 28.0001 191.6 27.2 191.6 25.1C191.6 23.1 193.3 21.7001 196.2 21.7001C199.3 21.7001 200.8 23 201.3 25.6H209.6C208.8 18.1 203.3 15.5 196.1 15.5C189.4 15.5 183.1 18.9001 183.1 25.7001C183.1 32.1001 186.5 34.6001 195.2 35.9001C199.9 36.6001 201.8 37.5 201.8 39.8C201.8 42.1 200.2 43.4001 196.7 43.4001ZM236 49.1H245V16.3H236V35.5C236 40.3 233 42.7001 229.2 42.7001C225.3 42.7001 223.5 40.6 223.5 36.1V16.3H214.5V37.4001C214.5 46.0001 219.3 49.7001 225.6 49.7001C231 49.7001 234.3 47.2001 236 43.9001V49.1ZM263 43.4001C259.1 43.4001 257.6 41.7 257.2 38.8H248.8C249.1 45.9 254.2 49.8 263.1 49.8C271.7 49.8 276.9 46.1 276.9 39C276.9 32 272.4 29.9001 264.2 28.7001C259.4 28.0001 257.9 27.2 257.9 25.1C257.9 23.1 259.6 21.7001 262.5 21.7001C265.6 21.7001 267.1 23 267.6 25.6H275.9C275.1 18.1 269.6 15.5 262.4 15.5C255.7 15.5 249.4 18.9001 249.4 25.7001C249.4 32.1001 252.8 34.6001 261.5 35.9001C266.2 36.6001 268.1 37.5 268.1 39.8C268.1 42.1 266.5 43.4001 263 43.4001ZM251.9 74.5C242.4 74.5 235.1 81.2 235.1 91.5V92C235.1 102.5 242.3 108.6 252.2 108.6C261.2 108.6 266.8 104.7 267.8 97.6H259.2C258.6 100.4 256.6 102.2 252.4 102.2C247.5 102.2 244.5 99.1 244.3 93.6H267.9V91.1C267.9 79.4 260.4 74.5 251.9 74.5ZM244.4 88.1C245.1 83.5 247.8 80.8 251.9 80.8C256.2 80.8 258.7 83.2 259 88.1H244.4ZM335 60.9001C332.1 60.9001 329.9 63.0001 329.9 65.8001C329.9 68.6001 332.2 70.7 335 70.7C337.9 70.7 340.2 68.6001 340.2 65.8001C340.2 63.0001 337.9 60.9001 335 60.9001ZM368 75.2L360.2 98.6L352.4 75.2H342.7L354.7 107.9H364.9L376.8 75.2H368ZM409.5 91.1C409.5 79.4 402 74.5 393.5 74.5C384 74.5 376.7 81.2 376.7 91.5V92C376.7 102.5 383.9 108.6 393.8 108.6C402.7 108.6 408.4 104.7 409.4 97.6H400.8C400.2 100.4 398.2 102.2 394 102.2C389.1 102.2 386.1 99.1 385.9 93.6H409.5V91.1ZM386 88.1C386.7 83.5 389.4 80.8 393.5 80.8C397.8 80.8 400.3 83.2 400.6 88.1H386ZM141.3 100.5C133.9 100.5 129.7 95.1 129.7 85.9V85.4C129.7 76.1 134.2 70.6 141.3 70.6C146.9 70.6 149.9 73.5 150.7 78.9H161C159.9 67.9 151.9 62.6 141.2 62.6C128.5 62.6 119 71.9 119 85.4V85.9C119 99.7 126.8 108.7 141.5 108.7C152.5 108.7 160.5 103 161.6 91.9H151.6C150.7 97.6 146.9 100.5 141.3 100.5ZM204.7 108H213.7V61H204.7V108ZM220.4 108H229.4V61H220.4V108ZM289 101.8C283.9 101.8 281 98.4 281 91.8V91.3C281 85 284.1 81.5 288.8 81.5C292.5 81.5 294.8 83.3 295.4 87.1H304C303.2 77.7 296.2 74.4 288.6 74.4C279.3 74.4 271.7 80.8 271.7 91.4V92C271.7 102.7 279 108.6 288.5 108.6C298 108.6 303.6 103.2 304.1 95.5H296C295.5 99.7 292.6 101.8 289 101.8ZM182.4 74.5C172.6 74.5 165.1 81.2 165.1 91.5V92C165.1 102.2 172.5 108.7 182.3 108.7C192.1 108.7 199.6 102.1 199.6 91.8V91.3C199.6 81.1 192.2 74.5 182.4 74.5ZM190.4 91.8C190.4 98 187.5 101.8 182.4 101.8C177.3 101.8 174.4 98 174.4 91.8V91.3C174.4 85 177.4 81.4 182.4 81.4C187.5 81.4 190.4 85.2 190.4 91.4V91.8ZM330.5 108H339.5V75.2H330.5V108ZM319.3 97.5V81.7H326.2V75.3H319.3V68.2H310.3V75.3H306.1V81.7H310.3V98.3C310.3 105.1 314 108.6 320.9 108.6C323.3 108.6 325.2 108.2 326.4 107.7V100.7C325.3 101.1 324.3 101.3 323 101.3C320.6 101.3 319.3 100.1 319.3 97.5Z" fill="#1A0706"/>
<path d="M46.5 100.2C27.6 100.2 12.2 84.8 12.2 65.9V46.5C12.2 27.6 27.6 12.2 46.5 12.2C64.1 12.2 78.9 25.7 80.7 43.2H92.9C91.1 18.9 70.9 0 46.5 0C20.9 0 0 20.9 0 46.5V65.8C0 91.4 20.9 112.3 46.5 112.3C70.9 112.3 91.1 93.4 92.9 69.2H80.7C78.9 86.6 64.1 100.2 46.5 100.2ZM26.9 60.9V65.8C26.9 76.6 35.7 85.4 46.5 85.4C57.3 85.4 66.1 76.6 66.1 65.8V37H54V65.8C54 69.9 50.6 73.3 46.5 73.3C42.4 73.3 39 69.9 39 65.8V60.9H26.9Z" fill="#FF4438"/>
</g>
<defs>
<clipPath id="clip0_1_182">
<rect width="409.5" height="112.3" fill="white"/>
</clipPath>
</defs>
</svg>
