<svg width="93" height="113" viewBox="0 0 93 113" fill="none" xmlns="http://www.w3.org/2000/svg">
<path d="M46.5 100.2C27.6 100.2 12.2 84.8 12.2 65.9V46.5C12.2 27.6 27.6 12.2 46.5 12.2C64.1 12.2 78.9 25.7 80.7 43.2H92.9C91.1 18.9 70.9 0 46.5 0C20.9 0 0 20.9 0 46.5V65.8C0 91.4 20.9 112.3 46.5 112.3C70.9 112.3 91.1 93.4 92.9 69.2H80.7C78.9 86.6 64.1 100.2 46.5 100.2ZM26.9 60.9V65.8C26.9 76.6 35.7 85.4 46.5 85.4C57.3 85.4 66.1 76.6 66.1 65.8V37H54V65.8C54 69.9 50.6 73.3 46.5 73.3C42.4 73.3 39 69.9 39 65.8V60.9H26.9Z" fill="#FF4438"/>
</svg>
