<svg width="24" height="24" viewBox="0 0 24 24" fill="none" xmlns="http://www.w3.org/2000/svg">
<path d="M7.05014 9.87869L4.92882 12C2.9762 13.9526 2.9762 17.1185 4.92882 19.0711C6.88144 21.0237 10.0473 21.0237 11.9999 19.0711L14.1212 16.9498L12.707 15.5355L10.5857 17.6569C9.4141 18.8284 7.51461 18.8284 6.34303 17.6569C5.17146 16.4853 5.17146 14.5858 6.34303 13.4142L8.46436 11.2929L7.05014 9.87869Z" fill="#6A5E5D"/>
<path d="M15.5354 12.7071L17.6567 10.5858C18.8283 9.41422 18.8283 7.51473 17.6567 6.34316C16.4852 5.17158 14.5857 5.17158 13.4141 6.34316L11.2928 8.46448L9.87857 7.05026L11.9999 4.92894C13.9525 2.97632 17.1183 2.97632 19.071 4.92894C21.0236 6.88156 21.0236 10.0474 19.071 12L16.9496 14.1213L15.5354 12.7071Z" fill="#6A5E5D"/>
<path d="M7.75725 14.8284L14.8283 7.75737L16.2425 9.17158L9.17146 16.2427L7.75725 14.8284Z" fill="#6A5E5D"/>
</svg>
