<svg width="24" height="24" viewBox="0 0 24 24" fill="none" xmlns="http://www.w3.org/2000/svg">
<rect x="10" y="7" width="4" height="4" rx="2" fill="#6A5E5D"/>
<path d="M18 9C18 10.0279 17.6361 11.1768 17.0185 12.3678C16.4054 13.5501 15.5764 14.7092 14.7281 15.7393C13.8822 16.7664 13.0335 17.6457 12.3952 18.2688C12.2517 18.4089 12.1191 18.5357 12 18.6481C11.8809 18.5357 11.7483 18.4089 11.6048 18.2688C10.9665 17.6457 10.1178 16.7664 9.27193 15.7393C8.4236 14.7092 7.59457 13.5501 6.9815 12.3678C6.36394 11.1768 6 10.0279 6 9C6 6.33217 7.08471 4.89538 8.3047 4.08205C9.58823 3.22636 11.1236 3 12 3C12.8764 3 14.4118 3.22636 15.6953 4.08205C16.9153 4.89538 18 6.33217 18 9Z" stroke="#6A5E5D" stroke-width="2"/>
</svg>
