<svg width="24" height="24" viewBox="0 0 24 24" fill="none" xmlns="http://www.w3.org/2000/svg">
<g clip-path="url(#clip0_439_9099)">
<circle cx="9" cy="8" r="4" stroke="#6A5E5D" stroke-width="2"/>
<path d="M21 22C21 19.2386 18.7614 17 16 17" stroke="#6A5E5D" stroke-width="2"/>
<path fill-rule="evenodd" clip-rule="evenodd" d="M13.584 24C12.8124 25.7659 11.0503 27 9 27C6.94968 27 5.1876 25.7659 4.41604 24H2.28988C3.15043 26.8915 5.82898 29 9 29C12.171 29 14.8496 26.8915 15.7101 24H13.584ZM14 22C14 19.2386 11.7614 17 9 17C6.23858 17 4 19.2386 4 22H2C2 18.134 5.13401 15 9 15C12.866 15 16 18.134 16 22H14Z" fill="#6A5E5D"/>
<path fill-rule="evenodd" clip-rule="evenodd" d="M13.6777 13.2571C14.3325 13.7248 15.1342 14 16.0002 14C18.2093 14 20.0002 12.2091 20.0002 10C20.0002 7.79086 18.2093 6 16.0002 6L16.0002 8C17.1047 8 18.0002 8.89543 18.0002 10C18.0002 11.1046 17.1047 12 16.0002 12C15.4395 12 14.9327 11.7693 14.5696 11.3977L13.6777 13.2571Z" fill="#6A5E5D"/>
</g>
<defs>
<clipPath id="clip0_439_9099">
<rect width="24" height="24" fill="white"/>
</clipPath>
</defs>
</svg>
