<svg width="24" height="24" viewBox="0 0 24 24" fill="none" xmlns="http://www.w3.org/2000/svg">
<path d="M20.9994 16.8147L20.9996 16.7978C21.0155 16.1568 20.5475 15.6055 19.9173 15.5168C18.9317 15.3871 17.964 15.1465 17.031 14.7991C16.5685 14.6256 16.0471 14.7366 15.6985 15.0806L14.4621 16.3144C14.2452 16.5308 13.9101 16.576 13.6434 16.4247C11.0995 14.9812 8.99323 12.8793 7.54673 10.3407C7.3951 10.0746 7.44034 9.74019 7.65726 9.52372L8.89095 8.29263C9.23836 7.94204 9.34955 7.42176 9.17513 6.9587C8.82757 6.02924 8.5865 5.06354 8.45736 4.08625C8.36846 3.45855 7.827 2.99385 7.18507 3.00006L4.26526 3.00006C3.90993 3.00046 3.57113 3.14981 3.33163 3.41163C3.09212 3.67346 2.97391 4.02368 3.00484 4.36615C3.31309 7.26279 4.30077 10.0463 5.89107 12.496C7.33211 14.7591 9.25478 16.6777 11.5278 18.1191C13.9667 19.6974 16.7425 20.6828 19.6199 20.9949C19.9748 21.0269 20.3268 20.9081 20.5894 20.6677C20.852 20.4273 21.0008 20.0875 20.9994 19.7292V16.8147Z" fill="#6A5E5D"/>
</svg>
