<svg width="24" height="24" viewBox="0 0 24 24" fill="none" xmlns="http://www.w3.org/2000/svg">
<path d="M15.5358 21C14.9835 21 14.5358 20.5523 14.5358 20L14.5358 11C14.5358 10.4477 14.9835 10 15.5358 10C16.088 10 16.5358 10.4477 16.5358 11L16.5358 20C16.5358 20.5523 16.088 21 15.5358 21Z" fill="#6A5E5D"/>
<path fill-rule="evenodd" clip-rule="evenodd" d="M16.2429 21.2929C15.8523 21.6834 15.2192 21.6834 14.8286 21.2929L11.2931 17.7574C10.9026 17.3668 10.9026 16.7337 11.2931 16.3431C11.6836 15.9526 12.3168 15.9526 12.7073 16.3431L14.8286 18.4645C15.2192 18.855 15.8523 18.855 16.2429 18.4645L18.3642 16.3431C18.7547 15.9526 19.3879 15.9526 19.7784 16.3431C20.1689 16.7337 20.1689 17.3668 19.7784 17.7574L16.2429 21.2929Z" fill="#6A5E5D"/>
<rect x="9.94971" y="3" width="11" height="2" rx="1" transform="rotate(90 9.94971 3)" fill="#6A5E5D"/>
<path fill-rule="evenodd" clip-rule="evenodd" d="M8.2426 2.70711C8.63312 2.31658 9.26629 2.31658 9.65681 2.70711L13.1923 6.24264C13.5829 6.63316 13.5829 7.26633 13.1923 7.65685V7.65685C12.8018 8.04738 12.1687 8.04738 11.7781 7.65685L9.65681 5.53553C9.26629 5.14501 8.63312 5.14501 8.2426 5.53553L6.12128 7.65685C5.73076 8.04738 5.09759 8.04738 4.70707 7.65685V7.65685C4.31654 7.26633 4.31654 6.63316 4.70707 6.24264L8.2426 2.70711Z" fill="#6A5E5D"/>
</svg>
