<svg width="24" height="24" viewBox="0 0 24 24" fill="none" xmlns="http://www.w3.org/2000/svg">
<rect x="4" y="18" width="16" height="2" rx="1" fill="#6A5E5D"/>
<rect x="13" y="5" width="11" height="2" rx="1" transform="rotate(90 13 5)" fill="#6A5E5D"/>
<path fill-rule="evenodd" clip-rule="evenodd" d="M11.2929 4.70711C11.6834 4.31658 12.3166 4.31658 12.7071 4.70711L16.2426 8.24264C16.6332 8.63316 16.6332 9.26633 16.2426 9.65685V9.65685C15.8521 10.0474 15.219 10.0474 14.8284 9.65685L12.7071 7.53553C12.3166 7.14501 11.6834 7.14501 11.2929 7.53553L9.17157 9.65685C8.78105 10.0474 8.14788 10.0474 7.75736 9.65685V9.65685C7.36684 9.26633 7.36684 8.63316 7.75736 8.24264L11.2929 4.70711Z" fill="#6A5E5D"/>
</svg>
